<?xml version="1.0" encoding="UTF-8" standalone="no"?>
<!-- Created with Inkscape (http://www.inkscape.org/) -->

<svg
   width="207.56888"
   height="196.29643"
   viewBox="0 0 54.919265 51.936764"
   version="1.1"
   id="svg1"
   xml:space="preserve"
   inkscape:version="1.4.2 (ebf0e940d0, 2025-05-08)"
   sodipodi:docname="GriddyLinkLogo.svg"
   inkscape:export-filename="GriddyLinkLogo.png"
   inkscape:export-xdpi="96"
   inkscape:export-ydpi="96"
   xmlns:inkscape="http://www.inkscape.org/namespaces/inkscape"
   xmlns:sodipodi="http://sodipodi.sourceforge.net/DTD/sodipodi-0.dtd"
   xmlns="http://www.w3.org/2000/svg"
   xmlns:svg="http://www.w3.org/2000/svg"><sodipodi:namedview
     id="namedview1"
     pagecolor="#ffffff"
     bordercolor="#000000"
     borderopacity="0.25"
     inkscape:showpageshadow="2"
     inkscape:pageopacity="0.0"
     inkscape:pagecheckerboard="0"
     inkscape:deskcolor="#d1d1d1"
     inkscape:document-units="mm"
     inkscape:zoom="2.0222363"
     inkscape:cx="174.55923"
     inkscape:cy="229.20171"
     inkscape:window-width="2560"
     inkscape:window-height="1344"
     inkscape:window-x="0"
     inkscape:window-y="0"
     inkscape:window-maximized="1"
     inkscape:current-layer="g18" /><defs
     id="defs1"><rect
       x="290.76721"
       y="82.581848"
       width="1289.1315"
       height="421.38562"
       id="rect7" /><inkscape:path-effect
       effect="fillet_chamfer"
       id="path-effect7"
       is_visible="true"
       lpeversion="1"
       nodesatellites_param="F,0,0,1,0,1.5530174,0,1 @ F,0,0,1,0,1.4091814,0,1 @ F,0,0,1,0,1.1648127,0,1 @ F,0,0,1,0,1.6832535,0,1"
       radius="0"
       unit="px"
       method="auto"
       mode="F"
       chamfer_steps="1"
       flexible="false"
       use_knot_distance="true"
       apply_no_radius="true"
       apply_with_radius="true"
       only_selected="false"
       hide_knots="false" /><inkscape:path-effect
       effect="fillet_chamfer"
       id="path-effect6"
       is_visible="true"
       lpeversion="1"
       nodesatellites_param="F,0,0,1,0,2.0816039,0,1 @ F,0,0,1,0,3.4010504,0,1 @ F,0,0,1,0,1.2716118,0,1"
       radius="0"
       unit="px"
       method="auto"
       mode="F"
       chamfer_steps="1"
       flexible="false"
       use_knot_distance="true"
       apply_no_radius="true"
       apply_with_radius="true"
       only_selected="false"
       hide_knots="false" /><inkscape:path-effect
       effect="fillet_chamfer"
       id="path-effect5"
       is_visible="true"
       lpeversion="1"
       nodesatellites_param="F,0,0,1,0,1.7923452,0,1 @ F,0,0,1,0,1.1341209,0,1 @ F,0,0,1,0,1.5517193,0,1"
       radius="0"
       unit="px"
       method="auto"
       mode="F"
       chamfer_steps="1"
       flexible="false"
       use_knot_distance="true"
       apply_no_radius="true"
       apply_with_radius="true"
       only_selected="false"
       hide_knots="false" /><inkscape:path-effect
       effect="fillet_chamfer"
       id="path-effect4"
       is_visible="true"
       lpeversion="1"
       nodesatellites_param="F,0,0,1,0,1.7404557,0,1 @ F,0,0,1,0,1.780637,0,1 @ F,0,0,1,0,0.3754034,0,1 @ F,0,0,1,0,1.4631658,0,1"
       radius="0"
       unit="px"
       method="auto"
       mode="F"
       chamfer_steps="1"
       flexible="false"
       use_knot_distance="true"
       apply_no_radius="true"
       apply_with_radius="true"
       only_selected="false"
       hide_knots="false" /><inkscape:path-effect
       effect="fillet_chamfer"
       id="path-effect2"
       is_visible="true"
       lpeversion="1"
       nodesatellites_param="F,0,0,1,0,0,0,1 @ F,0,0,1,0,0,0,1 @ F,0,0,1,0,1.1007973,0,1 @ F,0,0,1,0,1.705439,0,1 @ F,0,0,1,0,0,0,1 @ F,0,0,1,0,1.56033,0,1 @ F,0,0,1,0,1.5160988,0,1 @ F,0,0,1,0,0,0,1 @ F,0,0,1,0,0,0,1 @ F,0,0,1,0,1.4923043,0,1 @ F,0,0,1,0,1.276091,0,1 @ F,0,0,1,0,0,0,1 @ F,0,0,1,0,0,0,1 @ F,0,0,1,0,1.3508281,0,1 @ F,0,0,1,0,1.2369389,0,1"
       radius="0"
       unit="px"
       method="auto"
       mode="F"
       chamfer_steps="1"
       flexible="false"
       use_knot_distance="true"
       apply_no_radius="true"
       apply_with_radius="true"
       only_selected="false"
       hide_knots="false" /></defs><g
     inkscape:label="Layer 1"
     inkscape:groupmode="layer"
     id="layer1"
     transform="translate(-98.872423,-94.048521)"><g
       id="g7"
       transform="translate(4.5403673,6.0316175)"><g
         id="g18"
         transform="translate(0.19401585,4.6954286)"><g
           id="g19"
           transform="translate(6.2130181,3.202856)"><rect
             style="fill:#15adac;fill-opacity:1;stroke:none;stroke-width:0.264999"
             id="rect1"
             width="12"
             height="12"
             x="87.979561"
             y="84.193481"
             ry="2"
             rx="2" /><rect
             style="fill:#15adac;fill-opacity:1;stroke:none;stroke-width:0.264999"
             id="rect1-1"
             width="12"
             height="12"
             x="87.979561"
             y="98.31015"
             ry="2"
             rx="2" /><rect
             style="display:inline;fill:#15adac;fill-opacity:1;stroke:none;stroke-width:0.264999"
             id="rect1-5"
             width="12"
             height="12"
             x="116.57304"
             y="84.193481"
             ry="2"
             rx="2" /><rect
             style="display:inline;fill:#15adac;fill-opacity:1;stroke:none;stroke-width:0.264999"
             id="rect1-3"
             width="12"
             height="12"
             x="102.2763"
             y="84.193481"
             ry="2"
             rx="2" /><rect
             style="display:inline;fill:#15adac;fill-opacity:1;stroke:none;stroke-width:0.264999"
             id="rect1-1-2"
             width="12"
             height="12"
             x="102.2763"
             y="98.31015"
             ry="2"
             rx="2" /><circle
             style="display:inline;fill:#15adac;fill-opacity:1;stroke:none;stroke-width:0.242605"
             id="path1"
             cx="136.83076"
             cy="86.132141"
             r="6.0135226" /><path
             style="fill:#15adac;fill-opacity:1;stroke:none;stroke-width:0.8;stroke-linecap:round;stroke-dasharray:none;stroke-opacity:0.277286"
             d="m 87.93301,126.92345 c 11.509622,0.16815 21.09866,-3.22911 29.01021,-8.63202 7.64607,-5.22161 15.04615,-11.74944 18.31414,-22.660836 0.17442,-0.582368 0.58101,-1.567749 1.15121,-1.675356 0.80264,-0.151467 1.28505,1.334367 1.15257,2.266843 -0.94493,6.650829 -3.29038,12.974859 -8.20563,18.314489 l -0.19988,15.98317 a 1.5550863,1.5550863 135.81292 0 1 -1.57964,1.53545 l -9.28806,-0.14743 a 1.5925747,1.5925747 44.500116 0 1 -1.56642,-1.53932 l -0.21116,-6.33496 c -0.79494,-0.66817 -1.55638,-0.33139 -2.28965,0.85044 l -0.0482,5.44608 a 1.5080553,1.5080553 135.20624 0 1 -1.50551,1.49471 l -9.2303,0.0152 a 1.2669216,1.2669216 45.112044 0 1 -1.26899,-1.27396 l 0.009,-1.65489 -1.85532,0.075 -0.10452,1.59261 a 1.4519638,1.4519638 136.68823 0 1 -1.439259,1.35685 l -9.618442,0.0635 a 1.2262499,1.2262499 44.870302 0 1 -1.234344,-1.22877 z"
             id="path2"
             sodipodi:nodetypes="cscccccccccccccc"
             inkscape:path-effect="#path-effect2"
             inkscape:original-d="m 87.93301,126.92345 c 11.509622,0.16815 21.09866,-3.22911 29.01021,-8.63202 7.89027,-5.38838 15.51859,-12.16774 18.61449,-23.719816 0.21852,-0.704234 1.73438,-0.983282 2.21365,-0.04188 -0.77717,7.267536 -3.08532,14.216066 -8.41585,20.006836 l -0.21939,17.54338 -12.3641,-0.19625 -0.26167,-7.85022 c -0.79494,-0.66817 -1.55638,-0.33139 -2.28965,0.85044 l -0.0614,6.93833 -11.99869,0.0198 0.0163,-2.93096 -1.85532,0.075 -0.19298,2.94054 -12.206153,0.0806 z" /><path
             style="fill:#15adac;fill-opacity:1;stroke:none;stroke-width:0.799999;stroke-linecap:round;stroke-dasharray:none;stroke-opacity:0.277286"
             d="m 89.793759,111.93106 h 8.679454 a 1.780637,1.780637 45 0 1 1.780637,1.78064 v 6.65093 c 0,0.20733 -0.15687,0.43577 -0.351722,0.50661 -3.017321,1.09694 -6.621925,1.68641 -10.259329,2.00416 -0.80496,0.0703 -1.466411,-0.54165 -1.475973,-1.34967 l -0.09293,-7.85234 a 1.7199805,1.7199805 134.66099 0 1 1.71986,-1.74033 z"
             id="path3"
             sodipodi:nodetypes="ccccc"
             inkscape:path-effect="#path-effect4"
             inkscape:original-d="m 88.053303,111.93106 h 12.200547 v 8.80697 c -3.483748,1.33352 -7.80513,1.95634 -12.06971,2.24876 z"
             transform="translate(-0.09421738,0.49575478)" /><path
             style="fill:#15adac;fill-opacity:1;stroke:none;stroke-width:0.799999;stroke-linecap:round;stroke-dasharray:none;stroke-opacity:0.277286"
             d="m 102.05115,113.61559 0.0602,5.46071 c 0.007,0.62632 0.47787,0.9309 1.05274,0.68221 4.17472,-1.806 9.75836,-4.18946 10.88564,-6.39327 0.37228,-0.72781 -0.6939,-1.48378 -1.55088,-1.48818 l -8.67517,-0.0445 a 1.7636134,1.7636134 134.83105 0 0 -1.77255,1.78304 z"
             id="path4"
             inkscape:path-effect="#path-effect5"
             inkscape:original-d="m 102.03138,111.82335 0.0925,8.387 c 5.11645,-2.23788 13.54192,-5.58741 11.92669,-8.32533 z"
             sodipodi:nodetypes="cccc"
             transform="translate(0.22526001,0.59429166)" /><path
             style="fill:#15adac;fill-opacity:1;stroke:none;stroke-width:0.799999;stroke-linecap:round;stroke-dasharray:none;stroke-opacity:0.277286"
             d="m 117.61401,98.367351 h 9.04988 c 0.77827,0 1.34072,0.63167 1.12717,1.379288 -0.6008,2.103311 -1.87757,3.712631 -3.27193,5.236021 -0.43431,0.4745 -1.21202,1.16409 -1.72309,1.55479 -1.66393,1.27202 -3.32265,2.56693 -5.10673,3.31025 -0.85616,0.35672 -1.6057,-0.25666 -1.60757,-1.18629 l -0.0176,-8.741045 a 1.5498905,1.5498905 134.94226 0 1 1.54989,-1.553014 z"
             id="path6"
             inkscape:path-effect="#path-effect7"
             inkscape:original-d="m 116.06099,98.367351 h 12.01208 c -0.41263,3.246709 -2.36803,5.366009 -4.34824,7.467169 -2.47024,1.83924 -4.87604,3.96196 -7.6397,4.51014 z"
             sodipodi:nodetypes="ccccc"
             transform="translate(0.50892081,-0.05720289)" /></g></g></g></g></svg>
